<?xml version="1.0" encoding="UTF-8"?>
<svg xmlns="http://www.w3.org/2000/svg" xmlns:xlink="http://www.w3.org/1999/xlink" width="50pt" height="50pt" viewBox="0 0 50 50" version="1.1">
<g id="surface1">
<path style=" stroke:none;fill-rule:nonzero;fill:rgb(0.784314%,46.666667%,74.117647%);fill-opacity:1;" d="M 34.269531 33.269531 L 35.144531 38.355469 C 34.605469 38.644531 33.730469 38.917969 32.5625 39.167969 C 31.375 39.4375 29.980469 39.582031 28.375 39.582031 C 23.769531 39.5 20.3125 38.125 18 35.5 C 15.625 32.855469 14.5 29.5 14.5 25.4375 C 14.582031 20.625 16 16.9375 18.75 14.355469 C 21.417969 11.75 24.832031 10.417969 28.957031 10.417969 C 30.519531 10.417969 31.875 10.5625 33 10.8125 C 34.125 11.0625 34.957031 11.332031 35.5 11.644531 L 34.25 16.832031 L 32.082031 16.125 C 31.25 15.917969 30.269531 15.8125 29.167969 15.8125 C 26.769531 15.792969 24.769531 16.5625 23.207031 18.105469 C 21.625 19.625 20.832031 21.957031 20.75 25.0625 C 20.769531 27.894531 21.519531 30.105469 23 31.730469 C 24.480469 33.332031 26.542969 34.167969 29.230469 34.1875 L 32 33.9375 C 32.894531 33.769531 33.644531 33.542969 34.269531 33.269531 Z M 34.269531 33.269531 "/>
</g>
</svg>
