<?xml version="1.0" encoding="UTF-8"?>
<svg xmlns="http://www.w3.org/2000/svg" xmlns:xlink="http://www.w3.org/1999/xlink" width="50pt" height="50pt" viewBox="0 0 50 50" version="1.1">
<g id="surface1">
<path style=" stroke:none;fill-rule:evenodd;fill:rgb(29.803922%,68.627451%,31.372549%);fill-opacity:1;" d="M 25.203125 3.164062 C 14.554688 3.164062 5.9375 11.777344 5.9375 22.425781 C 5.9375 31.800781 12.65625 39.589844 21.527344 41.324219 L 21.527344 46.835938 C 33.054688 45.097656 43.261719 35.949219 44.023438 23.933594 C 44.480469 16.703125 40.878906 9.320312 34.796875 5.734375 C 34.089844 5.3125 33.351562 4.941406 32.589844 4.632812 L 32.222656 4.484375 C 31.886719 4.359375 31.542969 4.222656 31.191406 4.117188 C 29.257812 3.484375 27.238281 3.160156 25.203125 3.164062 Z M 29.171875 10.296875 C 28.476562 10.21875 27.785156 10.492188 27.332031 11.03125 C 26.980469 11.5 26.757812 11.957031 26.523438 12.429688 C 25.816406 14.074219 26.054688 15.839844 27.113281 17.132812 C 28.757812 16.78125 30.15625 15.730469 30.863281 14.082031 C 31.097656 13.609375 31.230469 13.007812 31.230469 12.539062 C 31.304688 11.289062 30.269531 10.40625 29.171875 10.296875 Z M 20.605469 10.40625 C 19.53125 10.507812 18.511719 11.359375 18.511719 12.539062 C 18.511719 13.007812 18.644531 13.609375 18.878906 14.082031 C 19.585938 15.730469 21.089844 16.777344 22.738281 17.132812 C 23.679688 15.839844 23.921875 14.074219 23.214844 12.425781 C 22.980469 11.957031 22.761719 11.492188 22.40625 11.140625 C 21.964844 10.609375 21.292969 10.335938 20.605469 10.40625 Z M 14.832031 16.066406 C 12.980469 16.160156 12.152344 18.492188 13.695312 19.703125 C 14.164062 20.058594 14.621094 20.316406 15.089844 20.550781 C 16.738281 21.257812 18.644531 21.015625 20.054688 20.074219 C 19.699219 18.542969 18.503906 17.140625 16.855469 16.433594 C 16.269531 16.199219 15.789062 16.066406 15.203125 16.066406 C 15.070312 16.050781 14.957031 16.058594 14.832031 16.066406 Z M 32.957031 23.199219 C 31.875 23.179688 30.8125 23.484375 29.90625 24.078125 C 30.257812 25.609375 31.457031 27.011719 33.105469 27.71875 C 33.691406 27.953125 34.171875 28.085938 34.757812 28.085938 C 36.875 28.203125 37.910156 25.585938 36.265625 24.410156 C 35.792969 24.058594 35.339844 23.835938 34.867188 23.601562 C 34.261719 23.34375 33.613281 23.207031 32.957031 23.199219 Z M 16.890625 23.308594 C 16.246094 23.320312 15.597656 23.449219 14.980469 23.710938 C 14.390625 23.945312 13.933594 24.203125 13.582031 24.558594 C 12.054688 25.851562 13.082031 28.316406 15.199219 28.195312 C 15.789062 28.195312 16.382812 28.0625 16.855469 27.828125 C 18.503906 27.125 19.671875 25.71875 19.90625 24.191406 C 19.015625 23.597656 17.960938 23.289062 16.890625 23.308594 Z M 22.847656 26.910156 C 21.199219 27.261719 19.804688 28.316406 19.097656 29.960938 C 18.863281 30.433594 18.730469 31 18.730469 31.46875 C 18.613281 33.46875 21.339844 34.542969 22.515625 33.011719 C 22.871094 32.542969 23.089844 32.085938 23.324219 31.617188 C 24.03125 30.085938 23.789062 28.320312 22.847656 26.910156 Z M 27.222656 27.019531 C 26.28125 28.316406 26.039062 30.078125 26.742188 31.726562 C 26.980469 32.195312 27.199219 32.660156 27.554688 33.011719 C 28.847656 34.425781 31.566406 33.378906 31.449219 31.617188 C 31.449219 31.144531 31.316406 30.542969 31.082031 30.070312 C 30.375 28.425781 28.871094 27.375 27.222656 27.019531 Z M 27.222656 27.019531 "/>
</g>
</svg>
