<?xml version="1.0" encoding="UTF-8"?>
<svg xmlns="http://www.w3.org/2000/svg" xmlns:xlink="http://www.w3.org/1999/xlink" width="50pt" height="42pt" viewBox="0 0 50 42" version="1.1">
<defs>
<clipPath id="clip1">
  <path d="M 1 4 L 49 4 L 49 38 L 1 38 Z M 1 4 "/>
</clipPath>
<clipPath id="clip2">
  <path d="M 10.964844 31.378906 C 9.625 31.378906 8.40625 30.300781 8.40625 28.980469 C 8.40625 27.660156 9.503906 26.582031 10.964844 26.582031 C 12.429688 26.582031 13.527344 27.660156 13.527344 28.980469 C 13.527344 30.300781 12.308594 31.378906 10.964844 31.378906 Z M 42.429688 18.300781 C 42.1875 16.378906 40.964844 14.820312 39.382812 13.621094 L 38.769531 13.140625 L 38.285156 13.742188 C 37.308594 14.820312 36.941406 16.742188 37.0625 18.179688 C 37.1875 19.261719 37.550781 20.339844 38.160156 21.179688 C 37.671875 21.421875 37.0625 21.660156 36.574219 21.902344 C 35.476562 22.261719 34.382812 22.378906 33.285156 22.378906 L 1.699219 22.378906 L 1.574219 23.101562 C 1.332031 25.378906 1.699219 27.78125 2.671875 29.941406 L 3.160156 30.78125 L 3.160156 30.902344 C 6.089844 35.699219 11.332031 37.859375 17.0625 37.859375 C 28.039062 37.859375 37.0625 33.179688 41.332031 23.101562 C 44.136719 23.21875 46.941406 22.5 48.285156 19.859375 L 48.648438 19.261719 L 48.039062 18.902344 C 46.453125 17.941406 44.257812 17.820312 42.429688 18.300781 Z M 26.699219 16.378906 L 21.941406 16.378906 L 21.941406 21.058594 L 26.699219 21.058594 Z M 26.699219 10.5 L 21.941406 10.5 L 21.941406 15.179688 L 26.699219 15.179688 Z M 26.699219 4.5 L 21.941406 4.5 L 21.941406 9.179688 L 26.699219 9.179688 Z M 32.550781 16.378906 L 27.796875 16.378906 L 27.796875 21.058594 L 32.550781 21.058594 Z M 14.867188 16.378906 L 10.113281 16.378906 L 10.113281 21.058594 L 14.867188 21.058594 Z M 20.84375 16.378906 L 16.089844 16.378906 L 16.089844 21.058594 L 20.84375 21.058594 Z M 9.015625 16.378906 L 4.257812 16.378906 L 4.257812 21.058594 L 9.015625 21.058594 Z M 20.84375 10.5 L 16.089844 10.5 L 16.089844 15.179688 L 20.84375 15.179688 Z M 14.867188 10.5 L 10.113281 10.5 L 10.113281 15.179688 L 14.867188 15.179688 Z M 14.867188 10.5 "/>
</clipPath>
</defs>
<g id="surface1">
<path style=" stroke:none;fill-rule:nonzero;fill:rgb(0%,52.941176%,78.823529%);fill-opacity:1;" d="M 10.964844 31.378906 C 9.625 31.378906 8.40625 30.300781 8.40625 28.980469 C 8.40625 27.660156 9.503906 26.582031 10.964844 26.582031 C 12.429688 26.582031 13.527344 27.660156 13.527344 28.980469 C 13.527344 30.300781 12.308594 31.378906 10.964844 31.378906 Z M 42.429688 18.300781 C 42.1875 16.378906 40.964844 14.820312 39.382812 13.621094 L 38.769531 13.140625 L 38.285156 13.742188 C 37.308594 14.820312 36.941406 16.742188 37.0625 18.179688 C 37.1875 19.261719 37.550781 20.339844 38.160156 21.179688 C 37.671875 21.421875 37.0625 21.660156 36.574219 21.902344 C 35.476562 22.261719 34.382812 22.378906 33.285156 22.378906 L 1.699219 22.378906 L 1.574219 23.101562 C 1.332031 25.378906 1.699219 27.78125 2.671875 29.941406 L 3.160156 30.78125 L 3.160156 30.902344 C 6.089844 35.699219 11.332031 37.859375 17.0625 37.859375 C 28.039062 37.859375 37.0625 33.179688 41.332031 23.101562 C 44.136719 23.21875 46.941406 22.5 48.285156 19.859375 L 48.648438 19.261719 L 48.039062 18.902344 C 46.453125 17.941406 44.257812 17.820312 42.429688 18.300781 Z M 26.699219 16.378906 L 21.941406 16.378906 L 21.941406 21.058594 L 26.699219 21.058594 Z M 26.699219 10.5 L 21.941406 10.5 L 21.941406 15.179688 L 26.699219 15.179688 Z M 26.699219 4.5 L 21.941406 4.5 L 21.941406 9.179688 L 26.699219 9.179688 Z M 32.550781 16.378906 L 27.796875 16.378906 L 27.796875 21.058594 L 32.550781 21.058594 Z M 14.867188 16.378906 L 10.113281 16.378906 L 10.113281 21.058594 L 14.867188 21.058594 Z M 20.84375 16.378906 L 16.089844 16.378906 L 16.089844 21.058594 L 20.84375 21.058594 Z M 9.015625 16.378906 L 4.257812 16.378906 L 4.257812 21.058594 L 9.015625 21.058594 Z M 20.84375 10.5 L 16.089844 10.5 L 16.089844 15.179688 L 20.84375 15.179688 Z M 14.867188 10.5 L 10.113281 10.5 L 10.113281 15.179688 L 14.867188 15.179688 Z M 14.867188 10.5 "/>
<g clip-path="url(#clip1)" clip-rule="nonzero">
<g clip-path="url(#clip2)" clip-rule="nonzero">
<rect x="0" y="0" width="50" height="42" style="fill:rgb(0%,52.941176%,78.823529%);fill-opacity:1;stroke:none;"/>
</g>
</g>
</g>
</svg>
