<?xml version="1.0" encoding="UTF-8"?>
<svg xmlns="http://www.w3.org/2000/svg" xmlns:xlink="http://www.w3.org/1999/xlink" width="50pt" height="50pt" viewBox="0 0 50 50" version="1.1">
<g id="surface1">
<path style=" stroke:none;fill-rule:nonzero;fill:rgb(47.45098%,52.54902%,79.607843%);fill-opacity:1;" d="M 16.246094 20.144531 L 24.597656 15.324219 C 24.804688 15.203125 25.0625 15.203125 25.273438 15.324219 L 33.621094 20.144531 C 33.832031 20.265625 33.960938 20.488281 33.960938 20.726562 L 33.960938 30.371094 C 33.960938 30.609375 33.832031 30.832031 33.621094 30.953125 L 25.273438 35.773438 C 25.0625 35.894531 24.804688 35.894531 24.597656 35.773438 L 16.246094 30.953125 C 16.039062 30.835938 15.910156 30.609375 15.910156 30.371094 L 15.910156 20.726562 C 15.910156 20.488281 16.039062 20.265625 16.246094 20.144531 "/>
<path style=" stroke:none;fill-rule:nonzero;fill:rgb(24.705882%,31.764706%,70.980392%);fill-opacity:1;" d="M 46.644531 24.535156 L 36.667969 7.179688 C 36.304688 6.550781 35.636719 6.089844 34.910156 6.089844 L 14.957031 6.089844 C 14.234375 6.089844 13.5625 6.550781 13.199219 7.179688 L 3.222656 24.496094 C 2.863281 25.125 2.863281 25.917969 3.222656 26.542969 L 13.199219 43.757812 C 13.5625 44.386719 14.234375 44.707031 14.957031 44.707031 L 34.910156 44.707031 C 35.636719 44.707031 36.304688 44.394531 36.667969 43.769531 L 46.644531 26.527344 C 47.007812 25.898438 47.007812 25.164062 46.644531 24.535156 M 38.382812 32.882812 C 38.382812 33.136719 38.230469 33.371094 38.007812 33.5 L 25.300781 40.832031 C 25.078125 40.960938 24.804688 40.960938 24.582031 40.832031 L 11.863281 33.5 C 11.644531 33.371094 11.488281 33.136719 11.488281 32.882812 L 11.488281 18.21875 C 11.488281 17.960938 11.640625 17.726562 11.863281 17.597656 L 24.570312 10.265625 C 24.789062 10.140625 25.066406 10.140625 25.289062 10.265625 L 38.007812 17.597656 C 38.226562 17.726562 38.382812 17.960938 38.382812 18.21875 Z M 38.382812 32.882812 "/>
</g>
</svg>
