<?xml version="1.0" encoding="UTF-8"?>
<svg xmlns="http://www.w3.org/2000/svg" xmlns:xlink="http://www.w3.org/1999/xlink" width="50pt" height="50pt" viewBox="0 0 50 50" version="1.1">
<g id="surface1">
<path style=" stroke:none;fill-rule:nonzero;fill:rgb(98.431373%,75.294118%,17.647059%);fill-opacity:1;" d="M 40.394531 37.992188 L 26.347656 45.785156 C 25.386719 46.285156 24.421875 46.285156 23.460938 45.785156 L 9.605469 37.992188 L 34.71875 12.691406 L 35.390625 12.5 C 35.96875 12.5 36.296875 12.75 36.351562 13.269531 L 40.394531 37.992188 M 19.902344 13.074219 L 11.148438 27.601562 L 14.800781 4.609375 C 14.859375 4.089844 15.1875 3.839844 15.765625 3.839844 C 16.148438 3.839844 16.398438 3.953125 16.535156 4.320312 L 20.671875 11.921875 L 19.902344 13.074219 M 28.558594 15.5 L 10.183594 33.953125 L 24.132812 10.285156 C 24.328125 9.902344 24.617188 9.726562 25 9.726562 C 25.386719 9.726562 25.636719 9.902344 25.769531 10.285156 Z M 28.558594 15.5 "/>
</g>
</svg>
