<?xml version="1.0" encoding="UTF-8"?>
<svg xmlns="http://www.w3.org/2000/svg" xmlns:xlink="http://www.w3.org/1999/xlink" width="50pt" height="50pt" viewBox="0 0 50 50" version="1.1">
<g id="surface1">
<path style=" stroke:none;fill-rule:nonzero;fill:rgb(90.196078%,29.019608%,9.803922%);fill-opacity:1;" d="M 5.417969 22.0625 L 17.457031 10 L 20.980469 13.542969 C 20.480469 15.3125 21.292969 17.25 22.917969 18.1875 L 22.917969 29.730469 C 21.667969 30.4375 20.832031 31.792969 20.832031 33.332031 C 20.832031 35.632812 22.699219 37.5 25 37.5 C 27.300781 37.5 29.167969 35.632812 29.167969 33.332031 C 29.167969 31.792969 28.332031 30.4375 27.082031 29.730469 L 27.082031 19.605469 L 31.394531 23.957031 C 31.25 24.269531 31.25 24.625 31.25 25 C 31.25 27.300781 33.117188 29.167969 35.417969 29.167969 C 37.71875 29.167969 39.582031 27.300781 39.582031 25 C 39.582031 22.699219 37.71875 20.832031 35.417969 20.832031 C 35.042969 20.832031 34.6875 20.832031 34.375 20.980469 L 29.019531 15.625 C 29.5625 13.6875 28.5625 11.5625 26.625 10.75 C 25.730469 10.417969 24.792969 10.332031 23.957031 10.5625 L 20.417969 7.042969 L 22.0625 5.417969 C 23.6875 3.769531 26.3125 3.769531 27.9375 5.417969 L 44.582031 22.0625 C 46.230469 23.6875 46.230469 26.3125 44.582031 27.9375 L 27.9375 44.582031 C 26.3125 46.230469 23.6875 46.230469 22.0625 44.582031 L 5.417969 27.9375 C 3.769531 26.3125 3.769531 23.6875 5.417969 22.0625 Z M 5.417969 22.0625 "/>
</g>
</svg>
