<?xml version="1.0" encoding="UTF-8"?>
<svg xmlns="http://www.w3.org/2000/svg" xmlns:xlink="http://www.w3.org/1999/xlink" width="50pt" height="52pt" viewBox="0 0 50 52" version="1.1">
<g id="surface1">
<path style=" stroke:none;fill-rule:nonzero;fill:rgb(41.176471%,38.823529%,72.54902%);fill-opacity:1;" d="M 40.941406 4.1875 L 9.0625 4.1875 C 6.859375 4.1875 5.074219 5.945312 5.074219 8.113281 L 5.074219 43.886719 C 5.074219 46.054688 6.859375 47.8125 9.0625 47.8125 L 40.941406 47.8125 C 43.140625 47.8125 44.925781 46.054688 44.925781 43.886719 L 44.925781 8.113281 C 44.925781 5.945312 43.140625 4.1875 40.941406 4.1875 Z M 15.039062 41.269531 L 15.039062 32.542969 L 20.019531 36.90625 Z M 30.535156 41.269531 L 30.535156 28.242188 C 30.515625 27.222656 30.015625 26 27.769531 26 C 23.265625 26 18.214844 28.230469 18.164062 28.253906 L 15.039062 29.648438 L 15.039062 10.730469 L 19.464844 10.730469 L 19.464844 23.117188 C 21.675781 22.40625 24.765625 21.636719 27.769531 21.636719 C 30.503906 21.636719 32.144531 22.699219 33.035156 23.585938 C 34.941406 25.484375 34.964844 27.902344 34.964844 28.183594 L 34.964844 41.269531 Z M 31.640625 17.820312 L 27.214844 17.820312 C 28.953125 15.570312 30.046875 13.203125 30.535156 10.730469 L 34.964844 10.730469 C 34.664062 13.210938 33.644531 15.585938 31.640625 17.820312 Z M 31.640625 17.820312 "/>
</g>
</svg>
