<?xml version="1.0" encoding="UTF-8"?>
<svg xmlns="http://www.w3.org/2000/svg" xmlns:xlink="http://www.w3.org/1999/xlink" width="50pt" height="50pt" viewBox="0 0 50 50" version="1.1">
<g id="surface1">
<path style=" stroke:none;fill-rule:nonzero;fill:rgb(56.470588%,64.313725%,68.235294%);fill-opacity:1;" d="M 27.257812 6.117188 C 29.34375 6.953125 30.171875 10.242188 29.082031 13.492188 C 27.996094 16.726562 25.445312 18.695312 23.34375 17.875 C 21.261719 17.066406 20.421875 13.765625 21.496094 10.507812 C 22.5625 7.265625 25.148438 5.316406 27.257812 6.117188 M 38.945312 12.867188 C 40.710938 14.300781 40.296875 17.503906 38.054688 20.070312 C 35.753906 22.621094 32.492188 23.546875 30.734375 22.140625 C 28.957031 20.722656 29.386719 17.527344 31.664062 14.984375 C 33.929688 12.414062 37.191406 11.484375 38.945312 12.867188 M 14.167969 8.589844 C 16.496094 8.863281 18.1875 11.78125 18.050781 15.078125 C 17.800781 18.378906 15.808594 20.847656 13.5 20.582031 C 11.191406 20.316406 9.503906 17.425781 9.695312 14.113281 C 9.882812 10.800781 11.917969 8.335938 14.167969 8.589844 M 43.59375 25.578125 C 44.941406 27.398438 43.820312 30.394531 41.046875 32.214844 C 38.273438 34.035156 34.925781 34.019531 33.542969 32.152344 C 32.15625 30.285156 33.300781 27.328125 36.03125 25.460938 C 38.820312 23.691406 42.195312 23.699219 43.59375 25.578125 M 30.691406 41.621094 C 29.867188 43.195312 27.710938 44.21875 25.9375 44.042969 C 22.234375 43.695312 20.375 38.914062 17.121094 37.035156 C 13.867188 35.15625 8.699219 36.03125 6.664062 32.914062 C 5.492188 31.171875 5.589844 28.394531 6.820312 26.753906 C 8.523438 24.484375 12.203125 24.867188 14.964844 24.085938 C 18.601562 23.113281 22.734375 19.722656 26.023438 21.621094 C 29.292969 23.507812 28.5625 28.777344 29.398438 32.421875 C 30.0625 35.460938 32.113281 38.890625 30.691406 41.621094 Z M 30.691406 41.621094 "/>
</g>
</svg>
