<?xml version="1.0" encoding="UTF-8"?>
<svg xmlns="http://www.w3.org/2000/svg" xmlns:xlink="http://www.w3.org/1999/xlink" width="50pt" height="50pt" viewBox="0 0 50 50" version="1.1">
<g id="surface1">
<path style=" stroke:none;fill-rule:nonzero;fill:rgb(100%,79.215686%,15.686275%);fill-opacity:1;" d="M 6.199219 6.199219 L 43.402344 6.199219 L 43.402344 43.402344 L 6.199219 43.402344 L 6.199219 6.199219 M 15.976562 37.285156 C 16.804688 39.042969 18.433594 40.488281 21.226562 40.488281 C 24.324219 40.488281 26.457031 38.832031 26.457031 35.21875 L 26.457031 23.269531 L 22.941406 23.269531 L 22.941406 35.136719 C 22.941406 36.910156 22.214844 37.367188 21.082031 37.367188 C 19.882812 37.367188 19.386719 36.539062 18.828125 35.570312 L 15.976562 37.285156 M 28.335938 36.910156 C 29.371094 38.9375 31.457031 40.488281 34.722656 40.488281 C 38.027344 40.488281 40.507812 38.773438 40.507812 35.609375 C 40.507812 32.695312 38.832031 31.394531 35.859375 30.113281 L 34.988281 29.742188 C 33.480469 29.097656 32.84375 28.664062 32.84375 27.632812 C 32.84375 26.785156 33.480469 26.121094 34.515625 26.121094 C 35.507812 26.121094 36.167969 26.558594 36.769531 27.632812 L 39.476562 25.835938 C 38.335938 23.851562 36.726562 23.085938 34.515625 23.085938 C 31.394531 23.085938 29.390625 25.070312 29.390625 27.695312 C 29.390625 30.546875 31.0625 31.890625 33.585938 32.964844 L 34.453125 33.339844 C 36.066406 34.039062 37.015625 34.472656 37.015625 35.671875 C 37.015625 36.664062 36.085938 37.386719 34.640625 37.386719 C 32.925781 37.386719 31.933594 36.5 31.1875 35.261719 Z M 28.335938 36.910156 "/>
</g>
</svg>
