<?xml version="1.0" encoding="UTF-8"?>
<svg xmlns="http://www.w3.org/2000/svg" xmlns:xlink="http://www.w3.org/1999/xlink" width="50pt" height="50pt" viewBox="0 0 50 50" version="1.1">
<g id="surface1">
<path style=" stroke:none;fill-rule:nonzero;fill:rgb(100%,79.215686%,15.686275%);fill-opacity:1;" d="M 6.25 6.25 L 43.75 6.25 L 43.75 43.75 L 6.25 43.75 L 6.25 6.25 M 16.105469 37.582031 C 16.9375 39.355469 18.582031 40.8125 21.394531 40.8125 C 24.519531 40.8125 26.667969 39.144531 26.667969 35.5 L 26.667969 23.457031 L 23.125 23.457031 L 23.125 35.417969 C 23.125 37.207031 22.394531 37.667969 21.25 37.667969 C 20.042969 37.667969 19.542969 36.832031 18.980469 35.855469 L 16.105469 37.582031 M 28.5625 37.207031 C 29.605469 39.25 31.707031 40.8125 35 40.8125 C 38.332031 40.8125 40.832031 39.082031 40.832031 35.894531 C 40.832031 32.957031 39.144531 31.644531 36.144531 30.355469 L 35.269531 29.980469 C 33.75 29.332031 33.105469 28.894531 33.105469 27.855469 C 33.105469 27 33.75 26.332031 34.792969 26.332031 C 35.792969 26.332031 36.457031 26.769531 37.0625 27.855469 L 39.792969 26.042969 C 38.644531 24.042969 37.019531 23.269531 34.792969 23.269531 C 31.644531 23.269531 29.625 25.269531 29.625 27.917969 C 29.625 30.792969 31.3125 32.144531 33.855469 33.230469 L 34.730469 33.605469 C 36.355469 34.3125 37.3125 34.75 37.3125 35.957031 C 37.3125 36.957031 36.375 37.6875 34.917969 37.6875 C 33.1875 37.6875 32.1875 36.792969 31.4375 35.542969 Z M 28.5625 37.207031 "/>
</g>
</svg>
