<?xml version="1.0" encoding="UTF-8"?>
<svg xmlns="http://www.w3.org/2000/svg" xmlns:xlink="http://www.w3.org/1999/xlink" width="50pt" height="50pt" viewBox="0 0 50 50" version="1.1">
<g id="surface1">
<path style=" stroke:none;fill-rule:nonzero;fill:rgb(54.509804%,76.470588%,29.019608%);fill-opacity:1;" d="M 25 3.855469 C 24.4375 3.855469 23.855469 4 23.375 4.269531 L 7.875 13.230469 C 6.875 13.8125 6.25 14.894531 6.25 16.0625 L 6.25 33.9375 C 6.25 35.105469 6.875 36.1875 7.875 36.769531 L 11.9375 39.105469 C 13.917969 40.0625 14.582031 40.082031 15.5 40.082031 C 18.417969 40.082031 20.105469 38.3125 20.105469 35.230469 L 20.105469 17.582031 C 20.105469 17.332031 19.894531 17.125 19.644531 17.125 L 17.707031 17.125 C 17.4375 17.125 17.230469 17.332031 17.230469 17.582031 L 17.230469 35.230469 C 17.230469 36.605469 15.8125 37.957031 13.542969 36.8125 L 9.269531 34.375 C 9.125 34.269531 9.042969 34.105469 9.042969 33.9375 L 9.042969 16.0625 C 9.042969 15.875 9.125 15.707031 9.269531 15.625 L 24.769531 6.6875 C 24.894531 6.605469 25.105469 6.605469 25.230469 6.6875 L 40.730469 15.625 C 40.875 15.707031 40.957031 15.875 40.957031 16.0625 L 40.957031 33.9375 C 40.957031 34.105469 40.875 34.269531 40.730469 34.375 L 25.230469 43.3125 C 25.105469 43.394531 24.894531 43.394531 24.75 43.3125 L 20.832031 40.9375 C 20.667969 40.875 20.5 40.855469 20.394531 40.917969 C 19.292969 41.542969 19.082031 41.667969 18.0625 41.980469 C 17.8125 42.0625 17.417969 42.207031 18.207031 42.644531 L 23.375 45.707031 C 23.875 46 24.417969 46.144531 25 46.144531 C 25.582031 46.144531 26.125 46 26.625 45.707031 L 42.125 36.769531 C 43.125 36.1875 43.75 35.105469 43.75 33.9375 L 43.75 16.0625 C 43.75 14.894531 43.125 13.8125 42.125 13.230469 L 26.625 4.269531 C 26.144531 4 25.582031 3.855469 25 3.855469 M 29.167969 16.667969 C 24.75 16.667969 22.105469 18.519531 22.105469 21.644531 C 22.105469 25 24.730469 25.980469 28.980469 26.394531 C 34.042969 26.894531 34.4375 27.644531 34.4375 28.644531 C 34.4375 30.375 33.042969 31.105469 29.792969 31.105469 C 25.667969 31.105469 24.792969 30.082031 24.480469 28.042969 C 24.4375 27.832031 24.25 27.667969 24.019531 27.667969 L 22.019531 27.667969 C 21.769531 27.667969 21.582031 27.855469 21.582031 28.125 C 21.582031 30.707031 23 33.832031 29.792969 33.832031 C 34.6875 33.832031 37.5 31.894531 37.5 28.519531 C 37.5 25.167969 35.25 24.292969 30.480469 23.644531 C 25.667969 23.019531 25.1875 22.6875 25.1875 21.5625 C 25.1875 20.625 25.605469 19.375 29.167969 19.375 C 32.292969 19.375 33.519531 20.0625 34 22.207031 C 34.042969 22.417969 34.230469 22.5625 34.4375 22.5625 L 36.457031 22.5625 C 36.5625 22.5625 36.6875 22.519531 36.769531 22.417969 C 36.855469 22.332031 36.917969 22.207031 36.875 22.082031 C 36.582031 18.375 34.125 16.667969 29.167969 16.667969 Z M 29.167969 16.667969 "/>
</g>
</svg>
