<?xml version="1.0" encoding="UTF-8"?>
<svg xmlns="http://www.w3.org/2000/svg" xmlns:xlink="http://www.w3.org/1999/xlink" width="50pt" height="50pt" viewBox="0 0 50 50" version="1.1">
<g id="surface1">
<path style=" stroke:none;fill-rule:nonzero;fill:rgb(23.529412%,47.058824%,66.666667%);fill-opacity:1;" d="M 20.539062 4.167969 C 17.25 4.167969 14.582031 6.832031 14.582031 10.125 L 14.582031 13.625 L 23.519531 13.625 C 24.332031 13.625 25 14.8125 25 15.625 L 10.125 15.625 C 6.832031 15.625 4.167969 18.292969 4.167969 21.582031 L 4.167969 29.460938 C 4.167969 32.753906 6.832031 35.417969 10.125 35.417969 L 12.582031 35.417969 L 12.582031 29.835938 C 12.582031 26.542969 15.230469 23.878906 18.523438 23.878906 L 29.460938 23.878906 C 32.75 23.878906 35.417969 21.230469 35.417969 17.9375 L 35.417969 10.125 C 35.417969 6.832031 32.75 4.167969 29.460938 4.167969 Z M 19.042969 7.519531 C 19.875 7.519531 20.539062 7.773438 20.539062 9 C 20.539062 10.230469 19.875 10.855469 19.042969 10.855469 C 18.230469 10.855469 17.5625 10.230469 17.5625 9 C 17.5625 7.773438 18.230469 7.519531 19.042969 7.519531 Z M 19.042969 7.519531 "/>
<path style=" stroke:none;fill-rule:nonzero;fill:rgb(99.215686%,84.705882%,20.784314%);fill-opacity:1;" d="M 37.414062 14.582031 L 37.414062 20.164062 C 37.414062 23.457031 34.769531 26.121094 31.476562 26.121094 L 20.539062 26.121094 C 17.25 26.121094 14.582031 28.765625 14.582031 32.058594 L 14.582031 39.871094 C 14.582031 43.164062 17.25 45.832031 20.539062 45.832031 L 29.460938 45.832031 C 32.75 45.832031 35.417969 43.164062 35.417969 39.871094 L 35.417969 36.371094 L 26.476562 36.371094 C 25.664062 36.371094 25 35.1875 25 34.375 L 39.875 34.375 C 43.167969 34.375 45.835938 31.703125 45.832031 28.414062 L 45.832031 20.539062 C 45.832031 17.25 43.164062 14.582031 39.875 14.582031 Z M 17.332031 23.984375 L 17.324219 23.992188 C 17.351562 23.988281 17.378906 23.992188 17.402344 23.984375 Z M 30.957031 39.144531 C 31.769531 39.144531 32.4375 39.769531 32.4375 41 C 32.4375 41.816406 31.773438 42.476562 30.957031 42.476562 C 30.125 42.476562 29.460938 42.226562 29.460938 41 C 29.460938 39.769531 30.125 39.144531 30.957031 39.144531 Z M 30.957031 39.144531 "/>
</g>
</svg>
