<?xml version="1.0" encoding="UTF-8"?>
<svg xmlns="http://www.w3.org/2000/svg" xmlns:xlink="http://www.w3.org/1999/xlink" width="50pt" height="50pt" viewBox="0 0 50 50" version="1.1">
<g id="surface1">
<path style=" stroke:none;fill-rule:nonzero;fill:rgb(0%,73.72549%,83.137255%);fill-opacity:1;" d="M 25 21.0625 C 27.144531 21.0625 28.894531 22.8125 28.894531 25 C 28.894531 27.082031 27.144531 28.855469 25 28.855469 C 22.855469 28.855469 21.105469 27.082031 21.105469 25 C 21.105469 22.8125 22.855469 21.0625 25 21.0625 M 15.355469 41.667969 C 16.667969 42.457031 19.542969 41.25 22.855469 38.125 C 21.769531 36.894531 20.707031 35.5625 19.707031 34.167969 C 18 34 16.3125 33.75 14.707031 33.417969 C 13.644531 37.875 14.042969 40.9375 15.355469 41.667969 M 16.832031 29.707031 L 16.230469 28.644531 C 16 29.25 15.769531 29.855469 15.625 30.4375 C 16.1875 30.5625 16.8125 30.667969 17.457031 30.769531 L 16.832031 29.707031 M 30.457031 28.125 L 32.144531 25 L 30.457031 21.875 C 29.832031 20.769531 29.167969 19.792969 28.5625 18.8125 C 27.4375 18.75 26.25 18.75 25 18.75 C 23.75 18.75 22.5625 18.75 21.4375 18.8125 C 20.832031 19.792969 20.167969 20.769531 19.542969 21.875 L 17.855469 25 L 19.542969 28.125 C 20.167969 29.230469 20.832031 30.207031 21.4375 31.1875 C 22.5625 31.25 23.75 31.25 25 31.25 C 26.25 31.25 27.4375 31.25 28.5625 31.1875 C 29.167969 30.207031 29.832031 29.230469 30.457031 28.125 M 25 14.125 C 24.605469 14.582031 24.1875 15.0625 23.769531 15.625 L 26.230469 15.625 C 25.8125 15.0625 25.394531 14.582031 25 14.125 M 25 35.875 C 25.394531 35.417969 25.8125 34.9375 26.230469 34.375 L 23.769531 34.375 C 24.1875 34.9375 24.605469 35.417969 25 35.875 M 34.625 8.332031 C 33.332031 7.542969 30.457031 8.75 27.144531 11.875 C 28.230469 13.105469 29.292969 14.4375 30.292969 15.832031 C 32 16 33.6875 16.25 35.292969 16.582031 C 36.355469 12.125 35.957031 9.0625 34.625 8.332031 M 33.167969 20.292969 L 33.769531 21.355469 C 34 20.75 34.230469 20.144531 34.375 19.5625 C 33.8125 19.4375 33.1875 19.332031 32.542969 19.230469 L 33.167969 20.292969 M 36.1875 5.605469 C 39.25 7.355469 39.582031 11.957031 38.292969 17.332031 C 43.582031 18.894531 47.394531 21.480469 47.394531 25 C 47.394531 28.519531 43.582031 31.105469 38.292969 32.667969 C 39.582031 38.042969 39.25 42.644531 36.1875 44.394531 C 33.144531 46.144531 29 44.144531 25 40.332031 C 21 44.144531 16.855469 46.144531 13.792969 44.394531 C 10.75 42.644531 10.417969 38.042969 11.707031 32.667969 C 6.417969 31.105469 2.605469 28.519531 2.605469 25 C 2.605469 21.480469 6.417969 18.894531 11.707031 17.332031 C 10.417969 11.957031 10.75 7.355469 13.792969 5.605469 C 16.855469 3.855469 21 5.855469 25 9.667969 C 29 5.855469 33.144531 3.855469 36.1875 5.605469 M 35.582031 25 C 36.292969 26.5625 36.917969 28.125 37.4375 29.707031 C 41.8125 28.394531 44.269531 26.519531 44.269531 25 C 44.269531 23.480469 41.8125 21.605469 37.4375 20.292969 C 36.917969 21.875 36.292969 23.4375 35.582031 25 M 14.417969 25 C 13.707031 23.4375 13.082031 21.875 12.5625 20.292969 C 8.1875 21.605469 5.730469 23.480469 5.730469 25 C 5.730469 26.519531 8.1875 28.394531 12.5625 29.707031 C 13.082031 28.125 13.707031 26.5625 14.417969 25 M 33.167969 29.707031 L 32.542969 30.769531 C 33.1875 30.667969 33.8125 30.5625 34.375 30.4375 C 34.230469 29.855469 34 29.25 33.769531 28.644531 L 33.167969 29.707031 M 27.144531 38.125 C 30.457031 41.25 33.332031 42.457031 34.625 41.667969 C 35.957031 40.9375 36.355469 37.875 35.292969 33.417969 C 33.6875 33.75 32 34 30.292969 34.167969 C 29.292969 35.5625 28.230469 36.894531 27.144531 38.125 M 16.832031 20.292969 L 17.457031 19.230469 C 16.8125 19.332031 16.1875 19.4375 15.625 19.5625 C 15.769531 20.144531 16 20.75 16.230469 21.355469 L 16.832031 20.292969 M 22.855469 11.875 C 19.542969 8.75 16.667969 7.542969 15.355469 8.332031 C 14.042969 9.0625 13.644531 12.125 14.707031 16.582031 C 16.3125 16.25 18 16 19.707031 15.832031 C 20.707031 14.4375 21.769531 13.105469 22.855469 11.875 Z M 22.855469 11.875 "/>
</g>
</svg>
