<?xml version="1.0" encoding="UTF-8"?>
<svg xmlns="http://www.w3.org/2000/svg" xmlns:xlink="http://www.w3.org/1999/xlink" width="50pt" height="50pt" viewBox="0 0 50 50" version="1.1">
<g id="surface1">
<path style=" stroke:none;fill-rule:evenodd;fill:rgb(0.784314%,53.333333%,81.960784%);fill-opacity:1;" d="M 4.601562 4.601562 L 4.601562 45.398438 L 45.398438 45.398438 L 45.398438 4.601562 Z M 35.601562 24.417969 C 35.992188 24.417969 36.4375 24.4375 36.773438 24.476562 C 38.132812 24.621094 39.195312 25.210938 40.097656 26.316406 C 40.546875 26.867188 40.699219 27.109375 40.667969 27.210938 C 40.644531 27.277344 40.339844 27.5 39.359375 28.152344 C 38.394531 28.789062 38.085938 28.980469 38.011719 28.980469 C 37.941406 28.980469 37.789062 28.824219 37.566406 28.523438 C 37.144531 27.945312 36.714844 27.679688 36.046875 27.59375 C 35.332031 27.496094 34.6875 27.722656 34.371094 28.183594 C 34.101562 28.574219 34.0625 29.203125 34.277344 29.660156 C 34.523438 30.1875 34.972656 30.480469 36.691406 31.238281 C 38.675781 32.105469 39.683594 32.703125 40.414062 33.441406 C 41.203125 34.234375 41.601562 35.15625 41.722656 36.453125 C 41.785156 37.085938 41.710938 37.839844 41.53125 38.449219 C 41.085938 39.945312 39.886719 41.039062 38.128906 41.554688 C 37.640625 41.699219 37.191406 41.78125 36.742188 41.816406 C 36.058594 41.867188 35.082031 41.839844 34.492188 41.753906 C 33.003906 41.535156 31.324219 40.667969 30.488281 39.6875 C 30.078125 39.207031 29.550781 38.414062 29.550781 38.273438 C 29.550781 38.207031 29.585938 38.167969 29.71875 38.082031 C 30.109375 37.832031 32.355469 36.550781 32.398438 36.550781 C 32.425781 36.550781 32.542969 36.6875 32.660156 36.855469 C 32.925781 37.238281 33.578125 37.898438 33.910156 38.117188 C 34.179688 38.296875 34.527344 38.441406 34.9375 38.542969 C 35.171875 38.601562 35.296875 38.613281 35.808594 38.613281 C 36.335938 38.613281 36.441406 38.605469 36.675781 38.542969 C 37.296875 38.375 37.785156 38.027344 37.988281 37.605469 C 38.078125 37.421875 38.082031 37.402344 38.082031 36.957031 L 38.082031 36.5 L 37.96875 36.28125 C 37.703125 35.75 37.125 35.386719 35.304688 34.597656 C 34.46875 34.234375 33.445312 33.722656 33.042969 33.46875 C 32.132812 32.886719 31.5 32.226562 31.082031 31.414062 C 30.671875 30.605469 30.609375 30.304688 30.609375 29.09375 C 30.605469 28.140625 30.605469 28.152344 30.800781 27.546875 C 30.980469 26.996094 31.347656 26.382812 31.75 25.953125 C 32.554688 25.097656 33.730469 24.546875 34.992188 24.4375 C 35.152344 24.421875 35.367188 24.417969 35.601562 24.417969 Z M 24.765625 24.605469 C 27.191406 24.605469 28.582031 24.613281 28.605469 24.628906 C 28.644531 24.65625 28.652344 24.867188 28.652344 26.210938 L 28.652344 27.765625 L 26.230469 27.777344 L 23.8125 27.785156 L 23.8125 34.65625 C 23.8125 38.433594 23.804688 41.550781 23.792969 41.578125 C 23.777344 41.625 23.589844 41.625 22.015625 41.625 L 20.257812 41.625 L 20.238281 41.554688 C 20.226562 41.515625 20.21875 38.402344 20.21875 34.632812 L 20.21875 27.785156 L 17.796875 27.773438 L 15.378906 27.765625 L 15.378906 26.230469 C 15.378906 25.011719 15.386719 24.6875 15.417969 24.652344 C 15.449219 24.621094 16.6875 24.609375 22.007812 24.605469 C 23.035156 24.605469 23.957031 24.605469 24.765625 24.605469 Z M 24.765625 24.605469 "/>
</g>
</svg>
