<?xml version="1.0" encoding="UTF-8"?>
<svg xmlns="http://www.w3.org/2000/svg" xmlns:xlink="http://www.w3.org/1999/xlink" width="50pt" height="50pt" viewBox="0 0 50 50" version="1.1">
<g id="surface1">
<path style=" stroke:none;fill-rule:nonzero;fill:rgb(17.254902%,55.686275%,73.333333%);fill-opacity:1;" d="M 43.085938 37.449219 C 40.949219 37.957031 39.867188 38.421875 37.226562 40.144531 C 33.085938 42.816406 28.574219 44.058594 28.574219 44.058594 C 28.574219 44.058594 28.199219 44.617188 27.117188 44.871094 C 25.25 45.324219 18.214844 45.710938 17.574219 45.726562 C 15.851562 45.738281 14.796875 45.285156 14.503906 44.578125 C 13.609375 42.441406 15.785156 41.507812 15.785156 41.507812 C 15.785156 41.507812 15.304688 41.214844 15.023438 40.945312 C 14.769531 40.691406 14.503906 40.183594 14.421875 40.371094 C 14.089844 41.1875 13.914062 43.175781 13.019531 44.070312 C 11.792969 45.3125 9.46875 44.898438 8.09375 44.175781 C 6.585938 43.375 8.203125 41.492188 8.203125 41.492188 C 8.203125 41.492188 7.386719 41.972656 6.734375 40.984375 C 6.144531 40.078125 5.597656 38.53125 5.746094 36.621094 C 5.933594 34.417969 8.363281 32.308594 8.363281 32.308594 C 8.363281 32.308594 7.933594 29.089844 9.335938 25.792969 C 10.605469 22.789062 14.023438 20.375 14.023438 20.375 C 14.023438 20.375 11.152344 17.210938 12.21875 14.339844 C 12.914062 12.46875 13.195312 12.484375 13.421875 12.402344 C 14.222656 12.097656 14.996094 11.761719 15.570312 11.136719 C 18.441406 8.039062 22.101562 8.625 22.101562 8.625 C 22.101562 8.625 23.808594 3.378906 25.410156 4.40625 C 25.90625 4.726562 27.679688 8.679688 27.679688 8.679688 C 27.679688 8.679688 29.574219 7.570312 29.789062 7.984375 C 30.9375 10.214844 31.070312 14.472656 30.5625 17.0625 C 29.710938 21.335938 27.574219 23.632812 26.71875 25.074219 C 26.519531 25.40625 29.015625 26.460938 30.589844 30.828125 C 32.046875 34.820312 30.75 38.167969 30.976562 38.542969 C 31.019531 38.609375 31.03125 38.636719 31.03125 38.636719 C 31.03125 38.636719 32.699219 38.769531 36.050781 36.699219 C 37.839844 35.59375 39.960938 34.351562 42.378906 34.324219 C 44.714844 34.285156 44.835938 37.035156 43.085938 37.449219 Z M 43.085938 37.449219 "/>
</g>
</svg>
